<svg width="28" height="37" viewBox="0 0 28 37" fill="none" xmlns="http://www.w3.org/2000/svg">
<path d="M5.96 34V26.88H6.78V34H5.96ZM0.88 34V26.88H1.69V34H0.88ZM1.26 30.73V30.04H6.42V30.73H1.26ZM10.5163 34.07C10.0363 34.07 9.61625 33.9633 9.25625 33.75C8.90292 33.5367 8.62625 33.2367 8.42625 32.85C8.23292 32.4567 8.13625 31.9933 8.13625 31.46C8.13625 30.9333 8.23292 30.4733 8.42625 30.08C8.62625 29.6867 8.90292 29.3833 9.25625 29.17C9.61625 28.9567 10.0363 28.85 10.5163 28.85C10.9963 28.85 11.4129 28.9567 11.7663 29.17C12.1263 29.3833 12.4029 29.6867 12.5963 30.08C12.7963 30.4733 12.8963 30.9333 12.8963 31.46C12.8963 31.9933 12.7963 32.4567 12.5963 32.85C12.4029 33.2367 12.1263 33.5367 11.7663 33.75C11.4129 33.9633 10.9963 34.07 10.5163 34.07ZM10.5163 33.4C11.0096 33.4 11.3896 33.2367 11.6563 32.91C11.9296 32.5767 12.0663 32.0933 12.0663 31.46C12.0663 30.84 11.9296 30.3633 11.6563 30.03C11.3829 29.6967 11.0029 29.53 10.5163 29.53C10.0296 29.53 9.64625 29.6967 9.36625 30.03C9.09292 30.3633 8.95625 30.84 8.95625 31.46C8.95625 32.0933 9.08958 32.5767 9.35625 32.91C9.62958 33.2367 10.0163 33.4 10.5163 33.4ZM14.1589 34V30.38C14.1589 30.1467 14.1522 29.9133 14.1389 29.68C14.1322 29.44 14.1122 29.2033 14.0789 28.97H14.8489L14.9389 30.01L14.8389 30.08C14.9589 29.6867 15.1656 29.3833 15.4589 29.17C15.7589 28.9567 16.1122 28.85 16.5189 28.85C17.0056 28.85 17.3822 28.97 17.6489 29.21C17.9222 29.45 18.0956 29.8167 18.1689 30.31L17.9289 30.18C18.0356 29.7733 18.2489 29.45 18.5689 29.21C18.8956 28.97 19.2856 28.85 19.7389 28.85C20.2922 28.85 20.7089 29.0167 20.9889 29.35C21.2689 29.6767 21.4089 30.1733 21.4089 30.84V34H20.5989V30.88C20.5989 30.4133 20.5156 30.0733 20.3489 29.86C20.1822 29.64 19.9189 29.53 19.5589 29.53C19.1389 29.53 18.8056 29.6733 18.5589 29.96C18.3189 30.2467 18.1989 30.6367 18.1989 31.13V34H17.3889V30.88C17.3889 30.4133 17.3022 30.0733 17.1289 29.86C16.9622 29.64 16.6989 29.53 16.3389 29.53C15.9122 29.53 15.5756 29.6733 15.3289 29.96C15.0889 30.2467 14.9689 30.6367 14.9689 31.13V34H14.1589ZM27.068 33.4C26.848 33.6067 26.5646 33.77 26.218 33.89C25.878 34.01 25.528 34.07 25.168 34.07C24.648 34.07 24.198 33.9667 23.818 33.76C23.4446 33.5533 23.1546 33.2567 22.948 32.87C22.748 32.4767 22.648 32.01 22.648 31.47C22.648 30.95 22.748 30.4933 22.948 30.1C23.148 29.7067 23.4246 29.4 23.778 29.18C24.138 28.96 24.5513 28.85 25.018 28.85C25.4646 28.85 25.848 28.95 26.168 29.15C26.488 29.3433 26.7313 29.6233 26.898 29.99C27.0713 30.3567 27.158 30.7967 27.158 31.31V31.46H23.358V30.93H26.698L26.438 31.3C26.4513 30.7133 26.3346 30.2633 26.088 29.95C25.848 29.6367 25.4946 29.48 25.028 29.48C24.5413 29.48 24.158 29.6533 23.878 30C23.6046 30.34 23.468 30.8133 23.468 31.42C23.468 32.0733 23.6113 32.5667 23.898 32.9C24.1913 33.2333 24.618 33.4 25.178 33.4C25.4713 33.4 25.7513 33.3533 26.018 33.26C26.2913 33.16 26.5513 33.01 26.798 32.81L27.068 33.4Z" fill="#FF0000"/>
<path fill-rule="evenodd" clip-rule="evenodd" d="M5.55192 10.5921C5.19689 10.9455 4.62129 10.9455 4.26627 10.5921C3.91124 10.2388 3.91124 9.66595 4.26627 9.31262L13.3572 0.264999C13.7122 -0.0883329 14.2878 -0.0883329 14.6428 0.264999L23.7337 9.31262C24.0888 9.66595 24.0888 10.2388 23.7337 10.5921C23.3787 10.9455 22.8031 10.9455 22.4481 10.5921L22.1818 10.3274V17.1945C22.1818 18.1933 21.3689 19 20.3628 19H7.63716C6.63348 19 5.81818 18.1934 5.81818 17.1945V10.3274L5.55192 10.5921ZM7.63716 17.1905L10.3636 17.191V11.7597C10.3636 11.2612 10.7702 10.8571 11.27 10.8571H16.73C17.2306 10.8571 17.6364 11.2609 17.6364 11.7597V17.1929L20.3636 17.1945V8.51944L14 2.19166L7.63632 8.51948C7.63613 10.2308 7.63716 17.1905 7.63716 17.1905ZM15.8182 12.6653V17.1923L12.1818 17.1914V12.6667L15.8182 12.6653Z" fill="#FF0000"/>
</svg>
