<svg width="33" height="35" viewBox="0 0 33 35" fill="none" xmlns="http://www.w3.org/2000/svg">
<path d="M0.88 32V24.88H1.7V31.3H5.27V32H0.88ZM6.22922 32V26.97H7.03922V32H6.22922ZM6.14922 24.84H7.13922V25.76H6.14922V24.84ZM8.61203 32V24.64H9.42203V28.26L9.31203 28.16C9.42536 27.7467 9.64203 27.4267 9.96203 27.2C10.282 26.9667 10.6687 26.85 11.122 26.85C11.5687 26.85 11.9587 26.9567 12.292 27.17C12.6254 27.3833 12.8854 27.6833 13.072 28.07C13.2654 28.4567 13.362 28.9133 13.362 29.44C13.362 29.9667 13.2654 30.43 13.072 30.83C12.8854 31.2233 12.622 31.53 12.282 31.75C11.9487 31.9633 11.562 32.07 11.122 32.07C10.6687 32.07 10.282 31.9567 9.96203 31.73C9.64203 31.5033 9.42536 31.18 9.31203 30.76L9.42203 30.65V32H8.61203ZM10.972 31.4C11.4587 31.4 11.8387 31.23 12.112 30.89C12.3854 30.5433 12.522 30.06 12.522 29.44C12.522 28.8333 12.3854 28.3633 12.112 28.03C11.8387 27.6967 11.4587 27.53 10.972 27.53C10.472 27.53 10.0887 27.7 9.82203 28.04C9.55536 28.3733 9.42203 28.8467 9.42203 29.46C9.42203 30.08 9.55536 30.56 9.82203 30.9C10.0887 31.2333 10.472 31.4 10.972 31.4ZM14.6081 32V28.38C14.6081 28.1467 14.6015 27.9133 14.5881 27.68C14.5815 27.44 14.5615 27.2033 14.5281 26.97H15.2981L15.4081 28.21L15.2981 28.18C15.3915 27.74 15.5915 27.41 15.8981 27.19C16.2115 26.9633 16.5615 26.85 16.9481 26.85C17.0348 26.85 17.1148 26.8567 17.1881 26.87C17.2681 26.8767 17.3415 26.89 17.4081 26.91L17.3881 27.65C17.2348 27.5967 17.0581 27.57 16.8581 27.57C16.5115 27.57 16.2315 27.6467 16.0181 27.8C15.8115 27.9533 15.6581 28.15 15.5581 28.39C15.4648 28.6233 15.4181 28.87 15.4181 29.13V32H14.6081ZM20.0635 32.07C19.6168 32.07 19.2235 31.9667 18.8835 31.76C18.5502 31.5467 18.2902 31.2467 18.1035 30.86C17.9235 30.4667 17.8335 30.0067 17.8335 29.48C17.8335 28.9533 17.9268 28.4933 18.1135 28.1C18.3002 27.7067 18.5602 27.4 18.8935 27.18C19.2335 26.96 19.6235 26.85 20.0635 26.85C20.5235 26.85 20.9135 26.9633 21.2335 27.19C21.5535 27.4167 21.7702 27.74 21.8835 28.16L21.7635 28.24V26.97H22.5635V32H21.7635V30.7L21.8835 30.76C21.7702 31.18 21.5535 31.5033 21.2335 31.73C20.9135 31.9567 20.5235 32.07 20.0635 32.07ZM20.2235 31.4C20.7168 31.4 21.0968 31.2333 21.3635 30.9C21.6302 30.56 21.7635 30.08 21.7635 29.46C21.7635 28.84 21.6268 28.3633 21.3535 28.03C21.0868 27.6967 20.7102 27.53 20.2235 27.53C19.7302 27.53 19.3435 27.7033 19.0635 28.05C18.7902 28.39 18.6535 28.8667 18.6535 29.48C18.6535 30.0933 18.7902 30.5667 19.0635 30.9C19.3435 31.2333 19.7302 31.4 20.2235 31.4ZM24.1296 32V28.38C24.1296 28.1467 24.1229 27.9133 24.1096 27.68C24.1029 27.44 24.0829 27.2033 24.0496 26.97H24.8196L24.9296 28.21L24.8196 28.18C24.9129 27.74 25.1129 27.41 25.4196 27.19C25.7329 26.9633 26.0829 26.85 26.4696 26.85C26.5563 26.85 26.6363 26.8567 26.7096 26.87C26.7896 26.8767 26.8629 26.89 26.9296 26.91L26.9096 27.65C26.7563 27.5967 26.5796 27.57 26.3796 27.57C26.0329 27.57 25.7529 27.6467 25.5396 27.8C25.3329 27.9533 25.1796 28.15 25.0796 28.39C24.9863 28.6233 24.9396 28.87 24.9396 29.13V32H24.1296ZM27.8154 34.27L27.6454 33.64C27.9521 33.5667 28.2087 33.48 28.4154 33.38C28.6287 33.2867 28.8054 33.1633 28.9454 33.01C29.0921 32.8567 29.2187 32.6533 29.3254 32.4L29.6454 31.66L29.8254 31.41L31.6654 26.97H32.4754L30.1254 32.46C29.9454 32.8667 29.7421 33.19 29.5154 33.43C29.2887 33.6767 29.0321 33.8633 28.7454 33.99C28.4654 34.1167 28.1554 34.21 27.8154 34.27ZM29.6554 32.26L27.3954 26.97H28.2454L30.0654 31.41L29.6554 32.26Z" fill="#898989"/>
<path opacity="0.24" fill-rule="evenodd" clip-rule="evenodd" d="M8.81377 0C7.81807 0 7 0.793984 7 1.77341V14.2266C7 15.2066 7.8144 16 8.819 16H25.181C26.185 16 27 15.2042 27 14.2225V4.44412C27 3.4608 26.1843 2.66667 25.1781 2.66667H17.0034L15.7157 0.742815C15.441 0.332343 14.8107 0 14.3076 0H8.81377ZM25.181 14.2222L8.81818 14.2266L8.81377 1.77778L14.2727 1.78212L15.4821 3.64019C15.818 4.14203 16.39 4.44444 17.0034 4.44444L25.1818 4.44412L25.181 14.2222Z" fill="black"/>
</svg>
