<svg width="63" height="36" viewBox="0 0 63 36" fill="none" xmlns="http://www.w3.org/2000/svg">
<path d="M3.14 33.08C2.77333 33.08 2.43 33.05 2.11 32.99C1.79 32.9233 1.49333 32.8233 1.22 32.69C0.946667 32.55 0.7 32.38 0.48 32.18L0.79 31.55C1.15 31.85 1.51 32.0633 1.87 32.19C2.23667 32.3167 2.66333 32.38 3.15 32.38C3.71667 32.38 4.15667 32.27 4.47 32.05C4.78333 31.8233 4.94 31.5067 4.94 31.1C4.94 30.8533 4.86 30.6567 4.7 30.51C4.54667 30.3567 4.33333 30.2367 4.06 30.15C3.79333 30.0567 3.49 29.97 3.15 29.89C2.81 29.8167 2.48667 29.7333 2.18 29.64C1.87333 29.54 1.6 29.4167 1.36 29.27C1.12667 29.1233 0.943333 28.9367 0.81 28.71C0.676667 28.4833 0.61 28.2 0.61 27.86C0.61 27.4533 0.716667 27.0967 0.93 26.79C1.14333 26.4767 1.44333 26.2333 1.83 26.06C2.21667 25.8867 2.67333 25.8 3.2 25.8C3.52667 25.8 3.84 25.8367 4.14 25.91C4.44 25.9767 4.71667 26.0767 4.97 26.21C5.23 26.3433 5.46 26.5067 5.66 26.7L5.34 27.33C5.01333 27.0433 4.67667 26.8333 4.33 26.7C3.98333 26.5667 3.60667 26.5 3.2 26.5C2.64667 26.5 2.21333 26.6167 1.9 26.85C1.58667 27.0833 1.43 27.41 1.43 27.83C1.43 28.09 1.5 28.3 1.64 28.46C1.78 28.62 1.97667 28.75 2.23 28.85C2.48333 28.9433 2.77333 29.03 3.1 29.11C3.44667 29.19 3.78 29.2767 4.1 29.37C4.42 29.4633 4.70333 29.58 4.95 29.72C5.20333 29.8533 5.40333 30.03 5.55 30.25C5.69667 30.4633 5.77 30.7367 5.77 31.07C5.77 31.4767 5.66333 31.83 5.45 32.13C5.23667 32.43 4.93333 32.6633 4.54 32.83C4.14667 32.9967 3.68 33.08 3.14 33.08ZM8.79047 33.07C8.19047 33.07 7.73714 32.9033 7.43047 32.57C7.13047 32.2367 6.98047 31.7433 6.98047 31.09V27.97H7.79047V31.07C7.79047 31.5233 7.8838 31.8567 8.07047 32.07C8.25714 32.2833 8.54047 32.39 8.92047 32.39C9.36714 32.39 9.72714 32.2467 10.0005 31.96C10.2738 31.6733 10.4105 31.29 10.4105 30.81V27.97H11.2205V33H10.4305V31.91L10.5505 31.85C10.4171 32.25 10.1905 32.5533 9.87047 32.76C9.55714 32.9667 9.19714 33.07 8.79047 33.07ZM12.782 33V25.64H13.592V29.26L13.482 29.16C13.5953 28.7467 13.812 28.4267 14.132 28.2C14.452 27.9667 14.8386 27.85 15.292 27.85C15.7386 27.85 16.1286 27.9567 16.462 28.17C16.7953 28.3833 17.0553 28.6833 17.242 29.07C17.4353 29.4567 17.532 29.9133 17.532 30.44C17.532 30.9667 17.4353 31.43 17.242 31.83C17.0553 32.2233 16.792 32.53 16.452 32.75C16.1186 32.9633 15.732 33.07 15.292 33.07C14.8386 33.07 14.452 32.9567 14.132 32.73C13.812 32.5033 13.5953 32.18 13.482 31.76L13.592 31.65V33H12.782ZM15.142 32.4C15.6286 32.4 16.0086 32.23 16.282 31.89C16.5553 31.5433 16.692 31.06 16.692 30.44C16.692 29.8333 16.5553 29.3633 16.282 29.03C16.0086 28.6967 15.6286 28.53 15.142 28.53C14.642 28.53 14.2586 28.7 13.992 29.04C13.7253 29.3733 13.592 29.8467 13.592 30.46C13.592 31.08 13.7253 31.56 13.992 31.9C14.2586 32.2333 14.642 32.4 15.142 32.4ZM20.478 33.07C19.6314 33.07 18.9614 32.8533 18.468 32.42L18.738 31.82C19.0047 32.0267 19.278 32.18 19.558 32.28C19.8447 32.3733 20.1614 32.42 20.508 32.42C20.888 32.42 21.1747 32.3567 21.368 32.23C21.568 32.0967 21.668 31.9067 21.668 31.66C21.668 31.46 21.6014 31.3033 21.468 31.19C21.3347 31.07 21.1147 30.9733 20.808 30.9L19.958 30.7C19.538 30.6067 19.2114 30.44 18.978 30.2C18.7514 29.96 18.638 29.6733 18.638 29.34C18.638 29.0467 18.718 28.79 18.878 28.57C19.038 28.3433 19.2614 28.1667 19.548 28.04C19.8347 27.9133 20.1747 27.85 20.568 27.85C20.9214 27.85 21.2547 27.9067 21.568 28.02C21.8814 28.1333 22.1447 28.2967 22.358 28.51L22.088 29.1C21.848 28.9 21.6014 28.7533 21.348 28.66C21.1014 28.56 20.8414 28.51 20.568 28.51C20.208 28.51 19.928 28.58 19.728 28.72C19.5347 28.86 19.438 29.05 19.438 29.29C19.438 29.4967 19.498 29.66 19.618 29.78C19.7447 29.9 19.9447 29.9933 20.218 30.06L21.068 30.27C21.5414 30.37 21.888 30.5367 22.108 30.77C22.3347 30.9967 22.448 31.2867 22.448 31.64C22.448 32.0733 22.2714 32.42 21.918 32.68C21.5647 32.94 21.0847 33.07 20.478 33.07ZM25.849 33.07C25.3557 33.07 24.929 32.9633 24.569 32.75C24.209 32.5367 23.929 32.2367 23.729 31.85C23.5357 31.4633 23.439 31.0067 23.439 30.48C23.439 29.96 23.539 29.5033 23.739 29.11C23.939 28.71 24.2223 28.4 24.589 28.18C24.9557 27.96 25.389 27.85 25.889 27.85C26.229 27.85 26.5557 27.91 26.869 28.03C27.189 28.1433 27.4523 28.3033 27.659 28.51L27.389 29.11C27.1423 28.9167 26.899 28.7733 26.659 28.68C26.4257 28.58 26.1823 28.53 25.929 28.53C25.4223 28.53 25.019 28.7 24.719 29.04C24.4257 29.38 24.279 29.86 24.279 30.48C24.279 31.0933 24.4257 31.5667 24.719 31.9C25.0123 32.2333 25.4157 32.4 25.929 32.4C26.1757 32.4 26.419 32.3533 26.659 32.26C26.899 32.16 27.1423 32.0133 27.389 31.82L27.659 32.42C27.4457 32.62 27.1757 32.78 26.849 32.9C26.529 33.0133 26.1957 33.07 25.849 33.07ZM28.6902 33V29.38C28.6902 29.1467 28.6835 28.9133 28.6702 28.68C28.6635 28.44 28.6435 28.2033 28.6102 27.97H29.3802L29.4902 29.21L29.3802 29.18C29.4735 28.74 29.6735 28.41 29.9802 28.19C30.2935 27.9633 30.6435 27.85 31.0302 27.85C31.1168 27.85 31.1968 27.8567 31.2702 27.87C31.3502 27.8767 31.4235 27.89 31.4902 27.91L31.4702 28.65C31.3168 28.5967 31.1402 28.57 30.9402 28.57C30.5935 28.57 30.3135 28.6467 30.1002 28.8C29.8935 28.9533 29.7402 29.15 29.6402 29.39C29.5468 29.6233 29.5002 29.87 29.5002 30.13V33H28.6902ZM32.3132 33V27.97H33.1232V33H32.3132ZM32.2332 25.84H33.2232V26.76H32.2332V25.84ZM34.696 35.16V29.38C34.696 29.1467 34.6893 28.9133 34.676 28.68C34.6693 28.44 34.6493 28.2033 34.616 27.97H35.386L35.476 29.01L35.396 29.16C35.5093 28.74 35.726 28.4167 36.046 28.19C36.366 27.9633 36.7527 27.85 37.206 27.85C37.646 27.85 38.0327 27.96 38.366 28.18C38.706 28.4 38.9693 28.7067 39.156 29.1C39.3493 29.4933 39.446 29.9533 39.446 30.48C39.446 31.0067 39.3493 31.4667 39.156 31.86C38.9693 32.2467 38.7093 32.5467 38.376 32.76C38.0427 32.9667 37.6527 33.07 37.206 33.07C36.7527 33.07 36.366 32.9567 36.046 32.73C35.726 32.5033 35.5093 32.18 35.396 31.76L35.506 31.66V35.16H34.696ZM37.056 32.4C37.5427 32.4 37.9227 32.2333 38.196 31.9C38.4693 31.5667 38.606 31.0933 38.606 30.48C38.606 29.8667 38.4693 29.39 38.196 29.05C37.9227 28.7033 37.5427 28.53 37.056 28.53C36.556 28.53 36.1727 28.6967 35.906 29.03C35.6393 29.3633 35.506 29.84 35.506 30.46C35.506 31.08 35.6393 31.56 35.906 31.9C36.1727 32.2333 36.556 32.4 37.056 32.4ZM39.9723 28.61V27.97H43.2023V28.61H39.9723ZM43.1823 32.28V32.97C43.069 33.0033 42.9557 33.0267 42.8423 33.04C42.7357 33.06 42.6157 33.07 42.4823 33.07C42.0157 33.07 41.6423 32.9367 41.3623 32.67C41.089 32.4033 40.9523 32.0033 40.9523 31.47V26.68L41.7623 26.39V31.36C41.7623 31.6267 41.799 31.8333 41.8723 31.98C41.9523 32.1267 42.059 32.23 42.1923 32.29C42.3257 32.3433 42.4757 32.37 42.6423 32.37C42.7423 32.37 42.8323 32.3633 42.9123 32.35C42.9923 32.3367 43.0823 32.3133 43.1823 32.28ZM44.1784 33V27.97H44.9884V33H44.1784ZM44.0984 25.84H45.0884V26.76H44.0984V25.84ZM48.6413 33.07C48.1613 33.07 47.7413 32.9633 47.3813 32.75C47.0279 32.5367 46.7513 32.2367 46.5513 31.85C46.3579 31.4567 46.2613 30.9933 46.2613 30.46C46.2613 29.9333 46.3579 29.4733 46.5513 29.08C46.7513 28.6867 47.0279 28.3833 47.3813 28.17C47.7413 27.9567 48.1613 27.85 48.6413 27.85C49.1213 27.85 49.5379 27.9567 49.8913 28.17C50.2513 28.3833 50.5279 28.6867 50.7213 29.08C50.9213 29.4733 51.0213 29.9333 51.0213 30.46C51.0213 30.9933 50.9213 31.4567 50.7213 31.85C50.5279 32.2367 50.2513 32.5367 49.8913 32.75C49.5379 32.9633 49.1213 33.07 48.6413 33.07ZM48.6413 32.4C49.1346 32.4 49.5146 32.2367 49.7813 31.91C50.0546 31.5767 50.1913 31.0933 50.1913 30.46C50.1913 29.84 50.0546 29.3633 49.7813 29.03C49.5079 28.6967 49.1279 28.53 48.6413 28.53C48.1546 28.53 47.7713 28.6967 47.4913 29.03C47.2179 29.3633 47.0813 29.84 47.0813 30.46C47.0813 31.0933 47.2146 31.5767 47.4813 31.91C47.7546 32.2367 48.1413 32.4 48.6413 32.4ZM52.2839 33V29.38C52.2839 29.1467 52.2772 28.9133 52.2639 28.68C52.2572 28.44 52.2372 28.2033 52.2039 27.97H52.9739L53.0639 29.01L52.9639 29.09C53.1039 28.6833 53.3372 28.3767 53.6639 28.17C53.9906 27.9567 54.3672 27.85 54.7939 27.85C56.0006 27.85 56.6039 28.5133 56.6039 29.84V33H55.7939V29.88C55.7939 29.4133 55.7006 29.0733 55.5139 28.86C55.3272 28.64 55.0339 28.53 54.6339 28.53C54.1672 28.53 53.7939 28.6733 53.5139 28.96C53.2339 29.2467 53.0939 29.6333 53.0939 30.12V33H52.2839ZM59.8335 33.07C58.9868 33.07 58.3168 32.8533 57.8235 32.42L58.0935 31.82C58.3602 32.0267 58.6335 32.18 58.9135 32.28C59.2002 32.3733 59.5168 32.42 59.8635 32.42C60.2435 32.42 60.5302 32.3567 60.7235 32.23C60.9235 32.0967 61.0235 31.9067 61.0235 31.66C61.0235 31.46 60.9568 31.3033 60.8235 31.19C60.6902 31.07 60.4702 30.9733 60.1635 30.9L59.3135 30.7C58.8935 30.6067 58.5668 30.44 58.3335 30.2C58.1068 29.96 57.9935 29.6733 57.9935 29.34C57.9935 29.0467 58.0735 28.79 58.2335 28.57C58.3935 28.3433 58.6168 28.1667 58.9035 28.04C59.1902 27.9133 59.5302 27.85 59.9235 27.85C60.2768 27.85 60.6102 27.9067 60.9235 28.02C61.2368 28.1333 61.5002 28.2967 61.7135 28.51L61.4435 29.1C61.2035 28.9 60.9568 28.7533 60.7035 28.66C60.4568 28.56 60.1968 28.51 59.9235 28.51C59.5635 28.51 59.2835 28.58 59.0835 28.72C58.8902 28.86 58.7935 29.05 58.7935 29.29C58.7935 29.4967 58.8535 29.66 58.9735 29.78C59.1002 29.9 59.3002 29.9933 59.5735 30.06L60.4235 30.27C60.8968 30.37 61.2435 30.5367 61.4635 30.77C61.6902 30.9967 61.8035 31.2867 61.8035 31.64C61.8035 32.0733 61.6268 32.42 61.2735 32.68C60.9202 32.94 60.4402 33.07 59.8335 33.07Z" fill="#898989"/>
<path opacity="0.24" fill-rule="evenodd" clip-rule="evenodd" d="M26.9056 1C26.9056 0.447715 27.3547 0 27.901 0H35.9102C36.4599 0 36.9056 0.443865 36.9056 1C36.9056 1.55228 36.4565 2 35.9102 2H27.901C27.3513 2 26.9056 1.55614 26.9056 1ZM23.0101 8.0949L23.811 16.1041C23.9173 17.1665 24.836 18 25.9012 18H37.91C38.9712 18 39.8943 17.1632 40.0002 16.1041L40.8011 8.0949C40.9152 6.95379 40.0495 6 38.9047 6H24.9065C23.7593 6 22.8962 6.95576 23.0101 8.0949ZM25.011 8.00421L38.7998 8.0079L37.9056 16H25.9056L25.011 8.00421ZM25.9012 3C25.3555 3 24.9056 3.44772 24.9056 4C24.9056 4.55614 25.3514 5 25.9012 5H37.91C38.4557 5 38.9056 4.55228 38.9056 4C38.9056 3.44386 38.4598 3 37.91 3H25.9012Z" fill="black"/>
</svg>
