<svg width="41" height="38" viewBox="0 0 41 38" fill="none" xmlns="http://www.w3.org/2000/svg">
<path d="M2.6 35V28.58H0.12V27.88H5.91V28.58H3.43V35H2.6ZM6.03391 35V31.38C6.03391 31.1467 6.02724 30.9133 6.01391 30.68C6.00724 30.44 5.98724 30.2033 5.95391 29.97H6.72391L6.83391 31.21L6.72391 31.18C6.81724 30.74 7.01724 30.41 7.32391 30.19C7.63724 29.9633 7.98724 29.85 8.37391 29.85C8.46057 29.85 8.54057 29.8567 8.61391 29.87C8.69391 29.8767 8.76724 29.89 8.83391 29.91L8.81391 30.65C8.66057 30.5967 8.48391 30.57 8.28391 30.57C7.93724 30.57 7.65724 30.6467 7.44391 30.8C7.23724 30.9533 7.08391 31.15 6.98391 31.39C6.89057 31.6233 6.84391 31.87 6.84391 32.13V35H6.03391ZM13.6793 34.4C13.4593 34.6067 13.176 34.77 12.8293 34.89C12.4893 35.01 12.1393 35.07 11.7793 35.07C11.2593 35.07 10.8093 34.9667 10.4293 34.76C10.056 34.5533 9.76596 34.2567 9.5593 33.87C9.3593 33.4767 9.2593 33.01 9.2593 32.47C9.2593 31.95 9.3593 31.4933 9.5593 31.1C9.7593 30.7067 10.036 30.4 10.3893 30.18C10.7493 29.96 11.1626 29.85 11.6293 29.85C12.076 29.85 12.4593 29.95 12.7793 30.15C13.0993 30.3433 13.3426 30.6233 13.5093 30.99C13.6826 31.3567 13.7693 31.7967 13.7693 32.31V32.46H9.9693V31.93H13.3093L13.0493 32.3C13.0626 31.7133 12.946 31.2633 12.6993 30.95C12.4593 30.6367 12.106 30.48 11.6393 30.48C11.1526 30.48 10.7693 30.6533 10.4893 31C10.216 31.34 10.0793 31.8133 10.0793 32.42C10.0793 33.0733 10.2226 33.5667 10.5093 33.9C10.8026 34.2333 11.2293 34.4 11.7893 34.4C12.0826 34.4 12.3626 34.3533 12.6293 34.26C12.9026 34.16 13.1626 34.01 13.4093 33.81L13.6793 34.4ZM14.9988 35V31.38C14.9988 31.1467 14.9921 30.9133 14.9788 30.68C14.9721 30.44 14.9521 30.2033 14.9188 29.97H15.6887L15.7788 31.01L15.6788 31.09C15.8188 30.6833 16.0521 30.3767 16.3788 30.17C16.7054 29.9567 17.0821 29.85 17.5088 29.85C18.7154 29.85 19.3188 30.5133 19.3188 31.84V35H18.5088V31.88C18.5088 31.4133 18.4154 31.0733 18.2288 30.86C18.0421 30.64 17.7488 30.53 17.3488 30.53C16.8821 30.53 16.5088 30.6733 16.2288 30.96C15.9488 31.2467 15.8088 31.6333 15.8088 32.12V35H14.9988ZM25.2784 35H24.4784V33.65L24.5984 33.76C24.485 34.18 24.2684 34.5033 23.9484 34.73C23.6284 34.9567 23.2384 35.07 22.7784 35.07C22.3384 35.07 21.9484 34.9633 21.6084 34.75C21.275 34.53 21.015 34.2233 20.8284 33.83C20.6417 33.43 20.5484 32.9667 20.5484 32.44C20.5484 31.9133 20.6384 31.4567 20.8184 31.07C21.005 30.6833 21.265 30.3833 21.5984 30.17C21.9384 29.9567 22.3317 29.85 22.7784 29.85C23.2384 29.85 23.6284 29.9667 23.9484 30.2C24.2684 30.4267 24.485 30.7467 24.5984 31.16L24.4684 31.26V27.64H25.2784V35ZM22.9384 34.4C23.425 34.4 23.8017 34.2333 24.0684 33.9C24.3417 33.56 24.4784 33.08 24.4784 32.46C24.4784 31.8467 24.345 31.3733 24.0784 31.04C23.8117 30.7 23.4317 30.53 22.9384 30.53C22.445 30.53 22.0584 30.6967 21.7784 31.03C21.505 31.3633 21.3684 31.8333 21.3684 32.44C21.3684 33.06 21.505 33.5433 21.7784 33.89C22.0584 34.23 22.445 34.4 22.9384 34.4ZM26.8445 35V29.97H27.6545V35H26.8445ZM26.7645 27.84H27.7545V28.76H26.7645V27.84ZM29.2273 35V31.38C29.2273 31.1467 29.2206 30.9133 29.2073 30.68C29.2006 30.44 29.1806 30.2033 29.1473 29.97H29.9173L30.0073 31.01L29.9073 31.09C30.0473 30.6833 30.2806 30.3767 30.6073 30.17C30.9339 29.9567 31.3106 29.85 31.7373 29.85C32.9439 29.85 33.5473 30.5133 33.5473 31.84V35H32.7373V31.88C32.7373 31.4133 32.6439 31.0733 32.4573 30.86C32.2706 30.64 31.9773 30.53 31.5773 30.53C31.1106 30.53 30.7373 30.6733 30.4573 30.96C30.1773 31.2467 30.0373 31.6333 30.0373 32.12V35H29.2273ZM37.2869 37.23C36.5269 37.23 35.8669 37.0567 35.3069 36.71L35.4469 36.05C35.7602 36.23 36.0569 36.36 36.3369 36.44C36.6169 36.52 36.9335 36.56 37.2869 36.56C37.7669 36.56 38.1302 36.43 38.3769 36.17C38.6302 35.9167 38.7569 35.5367 38.7569 35.03V33.67L38.8669 33.54C38.7869 33.8067 38.6602 34.04 38.4869 34.24C38.3202 34.4333 38.1135 34.5833 37.8669 34.69C37.6202 34.7967 37.3402 34.85 37.0269 34.85C36.5802 34.85 36.1869 34.7467 35.8469 34.54C35.5135 34.3267 35.2502 34.0333 35.0569 33.66C34.8702 33.2867 34.7769 32.85 34.7769 32.35C34.7769 31.85 34.8702 31.4133 35.0569 31.04C35.2502 30.6667 35.5135 30.3767 35.8469 30.17C36.1869 29.9567 36.5802 29.85 37.0269 29.85C37.4935 29.85 37.8869 29.9667 38.2069 30.2C38.5335 30.4267 38.7535 30.7467 38.8669 31.16L38.7469 31.05V29.97H39.5569V34.96C39.5569 35.7133 39.3635 36.28 38.9769 36.66C38.5969 37.04 38.0335 37.23 37.2869 37.23ZM37.1869 34.17C37.6735 34.17 38.0535 34.01 38.3269 33.69C38.6069 33.3633 38.7469 32.9167 38.7469 32.35C38.7469 31.7833 38.6069 31.34 38.3269 31.02C38.0535 30.6933 37.6735 30.53 37.1869 30.53C36.6935 30.53 36.3035 30.6933 36.0169 31.02C35.7369 31.34 35.5969 31.7833 35.5969 32.35C35.5969 32.9233 35.7369 33.37 36.0169 33.69C36.3035 34.01 36.6935 34.17 37.1869 34.17Z" fill="#898989"/>
<path opacity="0.24" fill-rule="evenodd" clip-rule="evenodd" d="M26.615 7.20041C28.1323 8.51081 29 10.1175 29 12.321C29 16.9118 25.4133 20.5268 21.0115 20.5268C16.6057 20.5268 13 16.9093 13 12.321C13 9.79412 13.5476 8.23242 15.155 5.6366C15.6637 4.81522 16.8987 5.11434 16.9944 6.08209C17.0803 6.95167 17.3443 7.69187 17.729 8.25935C17.4724 5.19295 18.8037 1.74433 22.0863 0.10596C22.8463 -0.27335 23.6943 0.424512 23.4966 1.26648C22.9841 3.44851 23.5121 4.62244 24.8924 5.88709C24.926 5.91795 25.098 6.04489 25.3254 6.21279C25.7373 6.51686 26.3311 6.95524 26.615 7.20041ZM15.6207 9.00737C15.339 9.66335 15 10.4525 15 12.321C15 15.7681 17.7011 18.478 21.0115 18.478C24.3159 18.478 27 15.7727 27 12.321C27 10.7811 26.4246 9.71578 25.3258 8.76679C25.1524 8.61699 24.7458 8.31456 24.3632 8.0299C24.0014 7.76076 23.6609 7.5075 23.559 7.41416C22.2339 6.20002 21.4238 4.9071 21.3138 3.18307C20.6438 3.85212 19.1042 5.93208 19.972 10.0484C20.1065 10.6865 19.6318 11.289 18.9945 11.289C17.7301 11.289 16.4802 10.2984 15.7163 8.78204C15.6856 8.85634 15.6536 8.93095 15.6207 9.00737Z" fill="black"/>
</svg>
